<?xml version="1.0" encoding="UTF-8"?>
<mxfile host="app.diagrams.net">
  <diagram id="d1758184664487" name="UML-ClassDiagram">
    <mxGraphModel grid="1"><root>
      <mxCell id="0"/>
      <mxCell id="1" parent="0"/>
      <mxCell id="2" style="umlClass;html=1;whiteSpace=wrap;rounded=1;strokeColor=#888888;fillColor=#AEC6CF;" vertex="1" parent="1">
        <mxGeometry x="60" y="60" width="240" height="210" as="geometry"/>
      </mxCell>
      <mxCell id="3" value="&lt;b&gt;Generator&lt;/b&gt;" style="text;html=1;whiteSpace=wrap;verticalAlign=middle;align=center;fillColor=#AEC6CF;strokeColor=#888888;" vertex="1" parent="2">
        <mxGeometry y="0" width="240" height="30" as="geometry"/>
      </mxCell>
      <mxCell id="4" value="ident: String" style="text;html=1;whiteSpace=wrap;verticalAlign=middle;align=left;fillColor=#E8DAEF;strokeColor=#888888;" vertex="1" parent="2">
        <mxGeometry y="30" width="240" height="20" as="geometry"/>
      </mxCell>
      <mxCell id="5" value="power: Real" style="text;html=1;whiteSpace=wrap;verticalAlign=middle;align=left;fillColor=#E8DAEF;strokeColor=#888888;" vertex="1" parent="2">
        <mxGeometry y="50" width="240" height="20" as="geometry"/>
      </mxCell>
      <mxCell id="6" value="online: Boolean" style="text;html=1;whiteSpace=wrap;verticalAlign=middle;align=left;fillColor=#E8DAEF;strokeColor=#888888;" vertex="1" parent="2">
        <mxGeometry y="70" width="240" height="20" as="geometry"/>
      </mxCell>
      <mxCell id="7" value="start: Event" style="text;html=1;whiteSpace=wrap;verticalAlign=middle;align=left;fillColor=#E8DAEF;strokeColor=#888888;" vertex="1" parent="2">
        <mxGeometry y="90" width="240" height="20" as="geometry"/>
      </mxCell>
      <mxCell id="8" value="stop: Event" style="text;html=1;whiteSpace=wrap;verticalAlign=middle;align=left;fillColor=#E8DAEF;strokeColor=#888888;" vertex="1" parent="2">
        <mxGeometry y="110" width="240" height="20" as="geometry"/>
      </mxCell>
      <mxCell id="9" value="R_StartupDelay: Requirement" style="text;html=1;whiteSpace=wrap;verticalAlign=middle;align=left;fillColor=#FFDAC1;strokeColor=#888888;" vertex="1" parent="2">
        <mxGeometry y="130" width="240" height="20" as="geometry"/>
      </mxCell>
      <mxCell id="10" value="(evaluate time at start) '&lt;=' 5" style="text;html=1;whiteSpace=wrap;verticalAlign=top;align=left;fillColor=#FFE4B5;strokeColor=#888888;" vertex="1" parent="2">
        <mxGeometry y="150" width="240" height="20" as="geometry"/>
      </mxCell>
      <mxCell id="11" value="R_PowerValid: Requirement" style="text;html=1;whiteSpace=wrap;verticalAlign=middle;align=left;fillColor=#FFDAC1;strokeColor=#888888;" vertex="1" parent="2">
        <mxGeometry y="170" width="240" height="20" as="geometry"/>
      </mxCell>
      <mxCell id="12" value="when online then (power &gt;= 0)" style="text;html=1;whiteSpace=wrap;verticalAlign=top;align=left;fillColor=#FFE4B5;strokeColor=#888888;" vertex="1" parent="2">
        <mxGeometry y="190" width="240" height="20" as="geometry"/>
      </mxCell>
      <mxCell id="13" style="umlClass;html=1;whiteSpace=wrap;rounded=1;strokeColor=#888888;fillColor=#AEC6CF;" vertex="1" parent="1">
        <mxGeometry x="380" y="60" width="240" height="230" as="geometry"/>
      </mxCell>
      <mxCell id="14" value="&lt;b&gt;Battery&lt;/b&gt;" style="text;html=1;whiteSpace=wrap;verticalAlign=middle;align=center;fillColor=#AEC6CF;strokeColor=#888888;" vertex="1" parent="13">
        <mxGeometry y="0" width="240" height="30" as="geometry"/>
      </mxCell>
      <mxCell id="15" value="ident: String" style="text;html=1;whiteSpace=wrap;verticalAlign=middle;align=left;fillColor=#E8DAEF;strokeColor=#888888;" vertex="1" parent="13">
        <mxGeometry y="30" width="240" height="20" as="geometry"/>
      </mxCell>
      <mxCell id="16" value="soc: Real" style="text;html=1;whiteSpace=wrap;verticalAlign=middle;align=left;fillColor=#E8DAEF;strokeColor=#888888;" vertex="1" parent="13">
        <mxGeometry y="50" width="240" height="20" as="geometry"/>
      </mxCell>
      <mxCell id="17" value="chargeRate: Real" style="text;html=1;whiteSpace=wrap;verticalAlign=middle;align=left;fillColor=#E8DAEF;strokeColor=#888888;" vertex="1" parent="13">
        <mxGeometry y="70" width="240" height="20" as="geometry"/>
      </mxCell>
      <mxCell id="18" value="chargeStart: Event" style="text;html=1;whiteSpace=wrap;verticalAlign=middle;align=left;fillColor=#E8DAEF;strokeColor=#888888;" vertex="1" parent="13">
        <mxGeometry y="90" width="240" height="20" as="geometry"/>
      </mxCell>
      <mxCell id="19" value="chargeStop: Event" style="text;html=1;whiteSpace=wrap;verticalAlign=middle;align=left;fillColor=#E8DAEF;strokeColor=#888888;" vertex="1" parent="13">
        <mxGeometry y="110" width="240" height="20" as="geometry"/>
      </mxCell>
      <mxCell id="20" value="R_SoCBounds: Requirement" style="text;html=1;whiteSpace=wrap;verticalAlign=middle;align=left;fillColor=#FFDAC1;strokeColor=#888888;" vertex="1" parent="13">
        <mxGeometry y="130" width="240" height="20" as="geometry"/>
      </mxCell>
      <mxCell id="21" value="(soc &gt;= 0 'and' soc &lt;= 100)" style="text;html=1;whiteSpace=wrap;verticalAlign=top;align=left;fillColor=#FFE4B5;strokeColor=#888888;" vertex="1" parent="13">
        <mxGeometry y="150" width="240" height="20" as="geometry"/>
      </mxCell>
      <mxCell id="22" value="R_RateSign: Requirement" style="text;html=1;whiteSpace=wrap;verticalAlign=middle;align=left;fillColor=#FFDAC1;strokeColor=#888888;" vertex="1" parent="13">
        <mxGeometry y="170" width="240" height="20" as="geometry"/>
      </mxCell>
      <mxCell id="23" value="if (chargeRate &gt; 0) then (soc &lt; 100) else true" style="text;html=1;whiteSpace=wrap;verticalAlign=top;align=left;fillColor=#FFE4B5;strokeColor=#888888;" vertex="1" parent="13">
        <mxGeometry y="190" width="240" height="40" as="geometry"/>
      </mxCell>
      <mxCell id="24" style="umlClass;html=1;whiteSpace=wrap;rounded=1;strokeColor=#888888;fillColor=#AEC6CF;" vertex="1" parent="1">
        <mxGeometry x="700" y="60" width="240" height="130" as="geometry"/>
      </mxCell>
      <mxCell id="25" value="&lt;b&gt;Load&lt;/b&gt;" style="text;html=1;whiteSpace=wrap;verticalAlign=middle;align=center;fillColor=#AEC6CF;strokeColor=#888888;" vertex="1" parent="24">
        <mxGeometry y="0" width="240" height="30" as="geometry"/>
      </mxCell>
      <mxCell id="26" value="ident: String" style="text;html=1;whiteSpace=wrap;verticalAlign=middle;align=left;fillColor=#E8DAEF;strokeColor=#888888;" vertex="1" parent="24">
        <mxGeometry y="30" width="240" height="20" as="geometry"/>
      </mxCell>
      <mxCell id="27" value="demand: Real" style="text;html=1;whiteSpace=wrap;verticalAlign=middle;align=left;fillColor=#E8DAEF;strokeColor=#888888;" vertex="1" parent="24">
        <mxGeometry y="50" width="240" height="20" as="geometry"/>
      </mxCell>
      <mxCell id="28" value="shed: Event" style="text;html=1;whiteSpace=wrap;verticalAlign=middle;align=left;fillColor=#E8DAEF;strokeColor=#888888;" vertex="1" parent="24">
        <mxGeometry y="70" width="240" height="20" as="geometry"/>
      </mxCell>
      <mxCell id="29" value="R_PeakLimit: Requirement" style="text;html=1;whiteSpace=wrap;verticalAlign=middle;align=left;fillColor=#FFDAC1;strokeColor=#888888;" vertex="1" parent="24">
        <mxGeometry y="90" width="240" height="20" as="geometry"/>
      </mxCell>
      <mxCell id="30" value="(demand &lt; 2000)" style="text;html=1;whiteSpace=wrap;verticalAlign=top;align=left;fillColor=#FFE4B5;strokeColor=#888888;" vertex="1" parent="24">
        <mxGeometry y="110" width="240" height="20" as="geometry"/>
      </mxCell>
      <mxCell id="31" style="umlClass;html=1;whiteSpace=wrap;rounded=1;strokeColor=#888888;fillColor=#AEC6CF;" vertex="1" parent="1">
        <mxGeometry x="60" y="410" width="240" height="210" as="geometry"/>
      </mxCell>
      <mxCell id="32" value="&lt;b&gt;Inverter&lt;/b&gt;" style="text;html=1;whiteSpace=wrap;verticalAlign=middle;align=center;fillColor=#AEC6CF;strokeColor=#888888;" vertex="1" parent="31">
        <mxGeometry y="0" width="240" height="30" as="geometry"/>
      </mxCell>
      <mxCell id="33" value="ident: String" style="text;html=1;whiteSpace=wrap;verticalAlign=middle;align=left;fillColor=#E8DAEF;strokeColor=#888888;" vertex="1" parent="31">
        <mxGeometry y="30" width="240" height="20" as="geometry"/>
      </mxCell>
      <mxCell id="34" value="synced: Boolean" style="text;html=1;whiteSpace=wrap;verticalAlign=middle;align=left;fillColor=#E8DAEF;strokeColor=#888888;" vertex="1" parent="31">
        <mxGeometry y="50" width="240" height="20" as="geometry"/>
      </mxCell>
      <mxCell id="35" value="sync: Event" style="text;html=1;whiteSpace=wrap;verticalAlign=middle;align=left;fillColor=#E8DAEF;strokeColor=#888888;" vertex="1" parent="31">
        <mxGeometry y="70" width="240" height="20" as="geometry"/>
      </mxCell>
      <mxCell id="36" value="trip: Event" style="text;html=1;whiteSpace=wrap;verticalAlign=middle;align=left;fillColor=#E8DAEF;strokeColor=#888888;" vertex="1" parent="31">
        <mxGeometry y="90" width="240" height="20" as="geometry"/>
      </mxCell>
      <mxCell id="37" value="R_SyncSetsFlag: Requirement" style="text;html=1;whiteSpace=wrap;verticalAlign=middle;align=left;fillColor=#FFDAC1;strokeColor=#888888;" vertex="1" parent="31">
        <mxGeometry y="110" width="240" height="20" as="geometry"/>
      </mxCell>
      <mxCell id="38" value="when sync then synced" style="text;html=1;whiteSpace=wrap;verticalAlign=top;align=left;fillColor=#FFE4B5;strokeColor=#888888;" vertex="1" parent="31">
        <mxGeometry y="130" width="240" height="20" as="geometry"/>
      </mxCell>
      <mxCell id="39" value="R_TripsLimited: Requirement" style="text;html=1;whiteSpace=wrap;verticalAlign=middle;align=left;fillColor=#FFDAC1;strokeColor=#888888;" vertex="1" parent="31">
        <mxGeometry y="150" width="240" height="20" as="geometry"/>
      </mxCell>
      <mxCell id="40" value="'during' synced 'check count' (trip 'becomes true') '&lt;=' 1" style="text;html=1;whiteSpace=wrap;verticalAlign=top;align=left;fillColor=#FFE4B5;strokeColor=#888888;" vertex="1" parent="31">
        <mxGeometry y="170" width="240" height="40" as="geometry"/>
      </mxCell>
      <mxCell id="41" style="umlClass;html=1;whiteSpace=wrap;rounded=1;strokeColor=#888888;fillColor=#AEC6CF;" vertex="1" parent="1">
        <mxGeometry x="380" y="410" width="240" height="110" as="geometry"/>
      </mxCell>
      <mxCell id="42" value="&lt;b&gt;Controller&lt;/b&gt;" style="text;html=1;whiteSpace=wrap;verticalAlign=middle;align=center;fillColor=#AEC6CF;strokeColor=#888888;" vertex="1" parent="41">
        <mxGeometry y="0" width="240" height="30" as="geometry"/>
      </mxCell>
      <mxCell id="43" value="ident: String" style="text;html=1;whiteSpace=wrap;verticalAlign=middle;align=left;fillColor=#E8DAEF;strokeColor=#888888;" vertex="1" parent="41">
        <mxGeometry y="30" width="240" height="20" as="geometry"/>
      </mxCell>
      <mxCell id="44" value="safeMode: Boolean" style="text;html=1;whiteSpace=wrap;verticalAlign=middle;align=left;fillColor=#E8DAEF;strokeColor=#888888;" vertex="1" parent="41">
        <mxGeometry y="50" width="240" height="20" as="geometry"/>
      </mxCell>
      <mxCell id="45" value="tick1Hz: Event" style="text;html=1;whiteSpace=wrap;verticalAlign=middle;align=left;fillColor=#E8DAEF;strokeColor=#888888;" vertex="1" parent="41">
        <mxGeometry y="70" width="240" height="20" as="geometry"/>
      </mxCell>
      <mxCell id="46" value="= true" style="text;html=1;whiteSpace=wrap;verticalAlign=middle;align=left;fillColor=#F4C2C2;strokeColor=#888888;" vertex="1" parent="41">
        <mxGeometry y="90" width="240" height="20" as="geometry"/>
      </mxCell>
      <mxCell id="47" value="&lt;i&gt;R_Tick: Requirement&lt;/i&gt;" style="shape=ellipse;html=1;whiteSpace=wrap;rounded=1;strokeColor=#888888;fillColor=#FFF5BA;" vertex="1" parent="1">
        <mxGeometry x="60" y="740" width="120" height="30" as="geometry"/>
      </mxCell>
    </root></mxGraphModel>
  </diagram>
</mxfile>